Coordinates
version=1
nRows=17
nColumns=40
inDegrees=yes

Units are S.I. units (second, meters, Newtons, ...)
If the header above contains a line with 'inDegrees', this indicates whether rotational values are in degrees (yes) or radians (no).

endheader
time	pelvis_tilt	pelvis_list	pelvis_rotation	pelvis_tx	pelvis_ty	pelvis_tz	hip_flexion_r	hip_adduction_r	hip_rotation_r	knee_angle_r	knee_angle_r_beta	ankle_angle_r	subtalar_angle_r	mtp_angle_r	hip_flexion_l	hip_adduction_l	hip_rotation_l	knee_angle_l	knee_angle_l_beta	ankle_angle_l	subtalar_angle_l	mtp_angle_l	lumbar_extension	lumbar_bending	lumbar_rotation	arm_flex_r	arm_add_r	arm_rot_r	elbow_flex_r	pro_sup_r	wrist_flex_r	wrist_dev_r	arm_flex_l	arm_add_l	arm_rot_l	elbow_flex_l	pro_sup_l	wrist_flex_l	wrist_dev_l
      2.30666667	      9.57698256	     -2.69131164	    -10.71622551	     -0.48890045	      0.88500213	     -0.28440095	    -17.27728566	     -3.93164391	     -0.70309174	     20.40397318	      0.35611651	      9.06003336	      0.00000000	      0.00000000	     12.65726099	     -3.82803210	     -9.75955875	     10.53915647	      0.18394298	      3.41177366	      0.00000000	      0.00000000	    -24.16276532	      6.91562086	     15.27625125	      0.00000000	     -9.25624057	      0.00000000	     74.38619113	     45.49122034	      0.00000000	      0.00000000	      0.00000000	     -9.25624057	      0.00000000	     74.38619113	     45.49122034	      0.00000000	      0.00000000
      2.31333333	      9.76546149	     -2.43098508	    -10.79860929	     -0.48001317	      0.88456737	     -0.28552504	    -17.14344819	     -4.59872785	     -0.98448774	     21.98179114	      0.38365463	      8.87032013	      0.00000000	      0.00000000	     12.50147751	     -3.35312987	     -9.73979401	     11.34707523	      0.19804382	      3.41775598	      0.00000000	      0.00000000	    -24.22777919	      6.41567059	     15.19213417	      0.00000000	     -9.26961340	      0.00000000	     74.38898144	     45.48504506	      0.00000000	      0.00000000	      0.00000000	     -9.26961340	      0.00000000	     74.38898144	     45.48504506	      0.00000000	      0.00000000
      2.32000000	      9.90154599	     -2.09601092	    -10.86580962	     -0.47106451	      0.88414483	     -0.28676851	    -16.83706004	     -5.34933356	     -1.27513125	     23.75469851	      0.41459770	      8.31550575	      0.00000000	      0.00000000	     12.39991079	     -2.79729041	     -9.66054305	     12.19209282	      0.21279216	      3.31350361	      0.00000000	      0.00000000	    -24.10256448	      5.97164940	     15.05108778	      0.00000000	     -9.28919105	      0.00000000	     74.39305505	     45.47612145	      0.00000000	      0.00000000	      0.00000000	     -9.28919105	      0.00000000	     74.39305505	     45.47612145	      0.00000000	      0.00000000
      2.32666667	     10.25253878	     -1.84401469	    -10.86865834	     -0.46218973	      0.88404531	     -0.28804648	    -16.80385732	     -5.99629291	     -1.46671860	     25.42953417	      0.44382910	      7.92241539	      0.00000000	      0.00000000	     12.04605257	     -2.30174335	     -9.60984114	     13.07602659	      0.22821972	      3.24482724	      0.00000000	      0.00000000	    -24.33665861	      5.59758912	     14.97101974	      0.00000000	     -9.29609357	      0.00000000	     74.39448815	     45.47300683	      0.00000000	      0.00000000	      0.00000000	     -9.29609357	      0.00000000	     74.39448815	     45.47300683	      0.00000000	      0.00000000
      2.33333333	     10.34549816	     -1.31561963	    -10.97693559	     -0.45321419	      0.88373761	     -0.28937541	    -16.17257157	     -7.00924699	     -1.87232937	     27.57236434	      0.48122854	      6.91070690	      0.00000000	      0.00000000	     11.91564735	     -1.52866796	     -9.55276257	     13.79788205	      0.24081847	      3.12097315	      0.00000000	      0.00000000	    -24.07103758	      4.90402402	     14.78865503	      0.00000000	     -9.30981846	      0.00000000	     74.39733273	     45.46686455	      0.00000000	      0.00000000	      0.00000000	     -9.30981846	      0.00000000	     74.39733273	     45.46686455	      0.00000000	      0.00000000
      2.34000000	     10.46286054	     -0.88458485	    -10.99677314	     -0.44430978	      0.88357601	     -0.29077649	    -15.58148959	     -7.85250534	     -2.15793017	     29.65467957	      0.51757180	      4.52219327	      0.00000000	      0.00000000	     11.75467620	     -0.86928026	     -9.45456655	     14.55982683	      0.25411692	      2.91832136	      0.00000000	      0.00000000	    -23.90164526	      4.39856786	     14.50424851	      0.00000000	     -9.35505653	      0.00000000	     74.40666137	     45.44709102	      0.00000000	      0.00000000	      0.00000000	     -9.35505653	      0.00000000	     74.40666137	     45.44709102	      0.00000000	      0.00000000
      2.34666667	     10.64675559	     -0.34122548	    -11.04888833	     -0.43544047	      0.88354237	     -0.29219736	    -14.94652472	     -8.85132905	     -2.42850211	     31.84384542	      0.55577995	      3.28286763	      0.00000000	      0.00000000	     11.45288293	     -0.05267633	     -9.32915257	     15.16921606	      0.26475277	      2.93865076	      0.00000000	      0.00000000	    -23.81374353	      3.72561560	     14.34721341	      0.00000000	     -9.37936458	      0.00000000	     74.41164554	     45.43674407	      0.00000000	      0.00000000	      0.00000000	     -9.37936458	      0.00000000	     74.41164554	     45.43674407	      0.00000000	      0.00000000
      2.35333333	     10.97070232	      0.07253221	    -11.07554386	     -0.42670220	      0.88374769	     -0.29357254	    -14.45862744	     -9.67994518	     -2.59106791	     33.98046109	      0.59307093	      2.46886328	      0.00000000	      0.00000000	     10.97318780	      0.60900029	     -9.34018588	     15.80824505	      0.27590593	      2.98036747	      0.00000000	      0.00000000	    -23.99138124	      3.16424913	     14.23589411	      0.00000000	     -9.38802453	      0.00000000	     74.41341637	     45.43310402	      0.00000000	      0.00000000	      0.00000000	     -9.38802453	      0.00000000	     74.41341637	     45.43310402	      0.00000000	      0.00000000
      2.36000000	     10.99369030	      0.67995173	    -11.11557684	     -0.41789001	      0.88372758	     -0.29500672	    -13.45741117	    -10.67489614	     -2.71171785	     36.30409339	      0.63362596	     -1.14285967	      0.00000000	      0.00000000	     10.77874747	      1.46088944	     -9.22573270	     16.28647518	      0.28425262	      3.32393694	      0.00000000	      0.00000000	    -23.68174107	      2.40886494	     13.90067124	      0.00000000	     -9.43261874	      0.00000000	     74.42249056	     45.41478471	      0.00000000	      0.00000000	      0.00000000	     -9.43261874	      0.00000000	     74.42249056	     45.41478471	      0.00000000	      0.00000000
      2.36666667	     11.14770128	      1.23478284	    -11.16160310	     -0.40921173	      0.88391487	     -0.29639894	    -12.56076917	    -11.59905353	     -2.72953792	     38.58599338	      0.67345263	     -3.49265224	      0.00000000	      0.00000000	     10.38663768	      2.26517656	     -9.20855006	     16.69430853	      0.29137065	      3.67483039	      0.00000000	      0.00000000	    -23.58771775	      1.70222205	     13.72480573	      0.00000000	     -9.47935083	      0.00000000	     74.43192997	     45.39623443	      0.00000000	      0.00000000	      0.00000000	     -9.47935083	      0.00000000	     74.43192997	     45.39623443	      0.00000000	      0.00000000
      2.37333333	     11.25981804	      1.77929246	    -11.20646772	     -0.40061714	      0.88413147	     -0.29775851	    -11.54299211	    -12.45506471	     -2.61279440	     40.87505598	      0.71340431	     -5.84623682	      0.00000000	      0.00000000	     10.00363311	      3.04132499	     -9.22919694	     17.04403442	      0.29747452	      4.06410467	      0.00000000	      0.00000000	    -23.47372436	      1.00435242	     13.52820184	      0.00000000	     -9.52206042	      0.00000000	     74.44049154	     45.37987100	      0.00000000	      0.00000000	      0.00000000	     -9.52206042	      0.00000000	     74.44049154	     45.37987100	      0.00000000	      0.00000000
      2.38000000	     11.45601803	      2.31344622	    -11.28316018	     -0.39211013	      0.88445647	     -0.29901890	    -10.56467389	    -13.27293503	     -2.36389879	     43.11918426	      0.75257174	     -6.73453777	      0.00000000	      0.00000000	      9.47665621	      3.80344077	     -9.38525874	     17.31158801	      0.30214421	      4.20938089	      0.00000000	      0.00000000	    -23.50219808	      0.28496433	     13.42983845	      0.00000000	     -9.53148856	      0.00000000	     74.44237280	     45.37633548	      0.00000000	      0.00000000	      0.00000000	     -9.53148856	      0.00000000	     74.44237280	     45.37633548	      0.00000000	      0.00000000
      2.38666667	     11.42652922	      2.81746706	    -11.31298497	     -0.38366728	      0.88470712	     -0.30030763	     -9.26623259	    -13.92727199	     -1.97348074	     45.34803534	      0.79147253	    -10.60711487	      0.00000000	      0.00000000	      9.14718492	      4.50957223	     -9.42065578	     17.48859054	      0.30523349	      4.97860255	      0.00000000	      0.00000000	    -23.24419158	     -0.34168707	     13.20354374	      0.00000000	     -9.57874859	      0.00000000	     74.45175897	     45.35899583	      0.00000000	      0.00000000	      0.00000000	     -9.57874859	      0.00000000	     74.45175897	     45.35899583	      0.00000000	      0.00000000
      2.39333333	     11.48026975	      3.29419395	    -11.36808919	     -0.37533281	      0.88506464	     -0.30147749	     -8.02780878	    -14.50182702	     -1.45001982	     47.49381209	      0.82892340	    -12.75926749	      0.00000000	      0.00000000	      8.67927739	      5.18474039	     -9.58070445	     17.59687025	      0.30712332	      5.51842786	      0.00000000	      0.00000000	    -23.13124381	     -0.99030830	     13.07834846	      0.00000000	     -9.63032120	      0.00000000	     74.46190760	     45.34086951	      0.00000000	      0.00000000	      0.00000000	     -9.63032120	      0.00000000	     74.46190760	     45.34086951	      0.00000000	      0.00000000
      2.40000000	     11.47453546	      3.74809217	    -11.42738506	     -0.36702674	      0.88542049	     -0.30253889	     -6.67886401	    -14.97735835	     -0.85254162	     49.59228114	      0.86554859	    -13.96238214	      0.00000000	      0.00000000	      8.21624720	      5.81195670	     -9.81717852	     17.60193709	      0.30721176	      5.80847115	      0.00000000	      0.00000000	    -22.94252528	     -1.65967127	     12.95561595	      0.00000000	     -9.65035480	      0.00000000	     74.46582582	     45.33402616	      0.00000000	      0.00000000	      0.00000000	     -9.65035480	      0.00000000	     74.46582582	     45.33402616	      0.00000000	      0.00000000
      2.40666667	     11.51078846	      4.09833950	    -11.49509458	     -0.35887738	      0.88589517	     -0.30359113	     -5.38784534	    -15.24499853	     -0.06856316	     51.51327409	      0.89907624	    -16.20094012	      0.00000000	      0.00000000	      7.68465182	      6.33624821	    -10.09420004	     17.62342537	      0.30758680	      6.51100818	      0.00000000	      0.00000000	    -22.88551769	     -2.09650160	     12.84450959	      0.00000000	     -9.70417643	      0.00000000	     74.47628086	     45.31621440	      0.00000000	      0.00000000	      0.00000000	     -9.70417643	      0.00000000	     74.47628086	     45.31621440	      0.00000000	      0.00000000
      2.41333333	     11.61189339	      4.37768586	    -11.56810578	     -0.35080713	      0.88650653	     -0.30449954	     -4.18303361	    -15.36485142	      0.76680582	     53.31393771	      0.93050375	    -16.55593158	      0.00000000	      0.00000000	      7.00128680	      6.79257631	    -10.41442210	     17.51442847	      0.30568444	      6.63503741	      0.00000000	      0.00000000	    -22.96282883	     -2.54007340	     12.73455535	      0.00000000	     -9.71153365	      0.00000000	     74.47770272	     45.31383685	      0.00000000	      0.00000000	      0.00000000	     -9.71153365	      0.00000000	     74.47770272	     45.31383685	      0.00000000	      0.00000000
